<mxfile host="app.diagrams.net" modified="2021-07-10T06:54:34.636Z" agent="5.0 (Windows NT 10.0; Win64; x64) AppleWebKit/537.36 (KHTML, like Gecko) Chrome/91.0.4472.114 Safari/537.36" etag="rVjA14w3vdLQT4TR5iNX" version="14.7.6" type="github">
  <diagram id="UDYgIA7ln_hlqoHzz-47" name="Page-1">
    <mxGraphModel dx="865" dy="441" grid="1" gridSize="10" guides="1" tooltips="1" connect="1" arrows="1" fold="1" page="1" pageScale="1" pageWidth="827" pageHeight="1169" math="0" shadow="0">
      <root>
        <mxCell id="0" />
        <mxCell id="1" parent="0" />
        <mxCell id="OPolez2JLK04nMgX61cm-1" value="" style="rounded=1;whiteSpace=wrap;html=1;dashed=1;fillColor=none;" vertex="1" parent="1">
          <mxGeometry x="60" y="60" width="470" height="260" as="geometry" />
        </mxCell>
        <mxCell id="OPolez2JLK04nMgX61cm-2" style="edgeStyle=orthogonalEdgeStyle;rounded=0;orthogonalLoop=1;jettySize=auto;html=1;exitX=1;exitY=0.5;exitDx=0;exitDy=0;entryX=0;entryY=0.5;entryDx=0;entryDy=0;" edge="1" parent="1" source="OPolez2JLK04nMgX61cm-5" target="OPolez2JLK04nMgX61cm-7">
          <mxGeometry relative="1" as="geometry" />
        </mxCell>
        <mxCell id="OPolez2JLK04nMgX61cm-5" value="HDFS&lt;br&gt;Client" style="rounded=0;whiteSpace=wrap;html=1;" vertex="1" parent="1">
          <mxGeometry x="80" y="100" width="120" height="60" as="geometry" />
        </mxCell>
        <mxCell id="OPolez2JLK04nMgX61cm-7" value="DistributedFile&lt;br&gt;System(DFS)" style="rounded=0;whiteSpace=wrap;html=1;" vertex="1" parent="1">
          <mxGeometry x="353" y="100" width="117" height="60" as="geometry" />
        </mxCell>
        <mxCell id="OPolez2JLK04nMgX61cm-8" value="NameNode" style="rounded=0;whiteSpace=wrap;html=1;" vertex="1" parent="1">
          <mxGeometry x="680" y="100" width="120" height="60" as="geometry" />
        </mxCell>
        <mxCell id="OPolez2JLK04nMgX61cm-9" value="1.DFS.open()" style="text;html=1;align=center;verticalAlign=middle;resizable=0;points=[];autosize=1;strokeColor=none;" vertex="1" parent="1">
          <mxGeometry x="215" y="110" width="100" height="20" as="geometry" />
        </mxCell>
        <mxCell id="OPolez2JLK04nMgX61cm-10" value="2. create()" style="text;html=1;align=center;verticalAlign=middle;resizable=0;points=[];autosize=1;strokeColor=none;" vertex="1" parent="1">
          <mxGeometry x="540" y="130" width="80" height="20" as="geometry" />
        </mxCell>
        <mxCell id="OPolez2JLK04nMgX61cm-39" style="edgeStyle=orthogonalEdgeStyle;rounded=0;orthogonalLoop=1;jettySize=auto;html=1;exitX=0.25;exitY=1;exitDx=0;exitDy=0;entryX=0.25;entryY=0;entryDx=0;entryDy=0;" edge="1" parent="1" source="OPolez2JLK04nMgX61cm-13" target="OPolez2JLK04nMgX61cm-16">
          <mxGeometry relative="1" as="geometry" />
        </mxCell>
        <mxCell id="OPolez2JLK04nMgX61cm-13" value="DFSOutputStream" style="rounded=0;whiteSpace=wrap;html=1;fillColor=none;gradientColor=none;" vertex="1" parent="1">
          <mxGeometry x="350" y="250" width="120" height="60" as="geometry" />
        </mxCell>
        <mxCell id="OPolez2JLK04nMgX61cm-14" value="3. write()" style="text;html=1;align=center;verticalAlign=middle;resizable=0;points=[];autosize=1;strokeColor=none;" vertex="1" parent="1">
          <mxGeometry x="260" y="180" width="70" height="20" as="geometry" />
        </mxCell>
        <mxCell id="OPolez2JLK04nMgX61cm-15" value="8. close()" style="text;html=1;align=center;verticalAlign=middle;resizable=0;points=[];autosize=1;strokeColor=none;" vertex="1" parent="1">
          <mxGeometry x="190" y="240" width="70" height="20" as="geometry" />
        </mxCell>
        <mxCell id="OPolez2JLK04nMgX61cm-34" style="edgeStyle=orthogonalEdgeStyle;rounded=0;orthogonalLoop=1;jettySize=auto;html=1;exitX=1;exitY=0.25;exitDx=0;exitDy=0;entryX=0;entryY=0.25;entryDx=0;entryDy=0;" edge="1" parent="1" source="OPolez2JLK04nMgX61cm-16" target="OPolez2JLK04nMgX61cm-17">
          <mxGeometry relative="1" as="geometry" />
        </mxCell>
        <mxCell id="OPolez2JLK04nMgX61cm-38" style="edgeStyle=orthogonalEdgeStyle;rounded=0;orthogonalLoop=1;jettySize=auto;html=1;exitX=0.75;exitY=0;exitDx=0;exitDy=0;entryX=0.75;entryY=1;entryDx=0;entryDy=0;" edge="1" parent="1" source="OPolez2JLK04nMgX61cm-16" target="OPolez2JLK04nMgX61cm-13">
          <mxGeometry relative="1" as="geometry" />
        </mxCell>
        <mxCell id="OPolez2JLK04nMgX61cm-16" value="DataNode" style="rounded=0;whiteSpace=wrap;html=1;fillColor=none;gradientColor=none;" vertex="1" parent="1">
          <mxGeometry x="350" y="370" width="120" height="60" as="geometry" />
        </mxCell>
        <mxCell id="OPolez2JLK04nMgX61cm-35" style="edgeStyle=orthogonalEdgeStyle;rounded=0;orthogonalLoop=1;jettySize=auto;html=1;exitX=0;exitY=0.75;exitDx=0;exitDy=0;entryX=1;entryY=0.75;entryDx=0;entryDy=0;" edge="1" parent="1" source="OPolez2JLK04nMgX61cm-17" target="OPolez2JLK04nMgX61cm-16">
          <mxGeometry relative="1" as="geometry" />
        </mxCell>
        <mxCell id="OPolez2JLK04nMgX61cm-36" style="edgeStyle=orthogonalEdgeStyle;rounded=0;orthogonalLoop=1;jettySize=auto;html=1;exitX=1;exitY=0.25;exitDx=0;exitDy=0;entryX=0;entryY=0.25;entryDx=0;entryDy=0;" edge="1" parent="1" source="OPolez2JLK04nMgX61cm-17" target="OPolez2JLK04nMgX61cm-18">
          <mxGeometry relative="1" as="geometry" />
        </mxCell>
        <mxCell id="OPolez2JLK04nMgX61cm-17" value="DataNode" style="rounded=0;whiteSpace=wrap;html=1;fillColor=none;gradientColor=none;" vertex="1" parent="1">
          <mxGeometry x="520" y="370" width="120" height="60" as="geometry" />
        </mxCell>
        <mxCell id="OPolez2JLK04nMgX61cm-37" style="edgeStyle=orthogonalEdgeStyle;rounded=0;orthogonalLoop=1;jettySize=auto;html=1;exitX=0;exitY=0.75;exitDx=0;exitDy=0;entryX=1;entryY=0.75;entryDx=0;entryDy=0;" edge="1" parent="1" source="OPolez2JLK04nMgX61cm-18" target="OPolez2JLK04nMgX61cm-17">
          <mxGeometry relative="1" as="geometry" />
        </mxCell>
        <mxCell id="OPolez2JLK04nMgX61cm-18" value="DataNode" style="rounded=0;whiteSpace=wrap;html=1;fillColor=none;gradientColor=none;" vertex="1" parent="1">
          <mxGeometry x="680" y="370" width="120" height="60" as="geometry" />
        </mxCell>
        <mxCell id="OPolez2JLK04nMgX61cm-19" value="5. write" style="text;html=1;align=center;verticalAlign=middle;resizable=0;points=[];autosize=1;strokeColor=none;" vertex="1" parent="1">
          <mxGeometry x="320" y="330" width="60" height="20" as="geometry" />
        </mxCell>
        <mxCell id="OPolez2JLK04nMgX61cm-21" value="&lt;font style=&quot;font-size: 22px&quot;&gt;Client Node&lt;/font&gt;" style="text;html=1;strokeColor=none;fillColor=none;align=center;verticalAlign=middle;whiteSpace=wrap;rounded=0;dashed=1;" vertex="1" parent="1">
          <mxGeometry x="190" y="70" width="220" height="20" as="geometry" />
        </mxCell>
        <mxCell id="OPolez2JLK04nMgX61cm-22" value="" style="endArrow=classic;html=1;entryX=0;entryY=0.5;entryDx=0;entryDy=0;exitX=0.847;exitY=0.008;exitDx=0;exitDy=0;exitPerimeter=0;" edge="1" parent="1" source="OPolez2JLK04nMgX61cm-13" target="OPolez2JLK04nMgX61cm-8">
          <mxGeometry width="50" height="50" relative="1" as="geometry">
            <mxPoint x="390" y="310" as="sourcePoint" />
            <mxPoint x="440" y="260" as="targetPoint" />
            <Array as="points">
              <mxPoint x="520" y="170" />
            </Array>
          </mxGeometry>
        </mxCell>
        <mxCell id="OPolez2JLK04nMgX61cm-23" value="" style="endArrow=classic;html=1;entryX=0;entryY=0.75;entryDx=0;entryDy=0;" edge="1" parent="1" target="OPolez2JLK04nMgX61cm-8">
          <mxGeometry width="50" height="50" relative="1" as="geometry">
            <mxPoint x="470" y="250" as="sourcePoint" />
            <mxPoint x="440" y="260" as="targetPoint" />
            <Array as="points" />
          </mxGeometry>
        </mxCell>
        <mxCell id="OPolez2JLK04nMgX61cm-24" value="4. addBlock()" style="text;html=1;align=center;verticalAlign=middle;resizable=0;points=[];autosize=1;strokeColor=none;" vertex="1" parent="1">
          <mxGeometry x="520" y="170" width="100" height="20" as="geometry" />
        </mxCell>
        <mxCell id="OPolez2JLK04nMgX61cm-27" value="" style="endArrow=classic;html=1;entryX=0;entryY=1;entryDx=0;entryDy=0;" edge="1" parent="1" target="OPolez2JLK04nMgX61cm-8">
          <mxGeometry width="50" height="50" relative="1" as="geometry">
            <mxPoint x="470" y="260" as="sourcePoint" />
            <mxPoint x="690" y="180" as="targetPoint" />
            <Array as="points">
              <mxPoint x="620" y="240" />
            </Array>
          </mxGeometry>
        </mxCell>
        <mxCell id="OPolez2JLK04nMgX61cm-28" value="9. compete()" style="text;html=1;align=center;verticalAlign=middle;resizable=0;points=[];autosize=1;strokeColor=none;" vertex="1" parent="1">
          <mxGeometry x="535" y="220" width="90" height="20" as="geometry" />
        </mxCell>
        <mxCell id="OPolez2JLK04nMgX61cm-32" value="6. ack" style="text;html=1;align=center;verticalAlign=middle;resizable=0;points=[];autosize=1;strokeColor=none;" vertex="1" parent="1">
          <mxGeometry x="440" y="330" width="50" height="20" as="geometry" />
        </mxCell>
        <mxCell id="OPolez2JLK04nMgX61cm-40" value="" style="endArrow=classic;html=1;exitX=1;exitY=0;exitDx=0;exitDy=0;entryX=0.25;entryY=1;entryDx=0;entryDy=0;" edge="1" parent="1" source="OPolez2JLK04nMgX61cm-16" target="OPolez2JLK04nMgX61cm-8">
          <mxGeometry width="50" height="50" relative="1" as="geometry">
            <mxPoint x="470" y="290" as="sourcePoint" />
            <mxPoint x="520" y="240" as="targetPoint" />
            <Array as="points">
              <mxPoint x="610" y="280" />
            </Array>
          </mxGeometry>
        </mxCell>
        <mxCell id="OPolez2JLK04nMgX61cm-41" value="" style="endArrow=classic;html=1;entryX=0.5;entryY=1;entryDx=0;entryDy=0;" edge="1" parent="1" target="OPolez2JLK04nMgX61cm-8">
          <mxGeometry width="50" height="50" relative="1" as="geometry">
            <mxPoint x="580" y="370" as="sourcePoint" />
            <mxPoint x="520" y="240" as="targetPoint" />
            <Array as="points">
              <mxPoint x="650" y="300" />
            </Array>
          </mxGeometry>
        </mxCell>
        <mxCell id="OPolez2JLK04nMgX61cm-42" value="" style="endArrow=classic;html=1;exitX=0.5;exitY=0;exitDx=0;exitDy=0;entryX=0.75;entryY=1;entryDx=0;entryDy=0;" edge="1" parent="1" source="OPolez2JLK04nMgX61cm-18" target="OPolez2JLK04nMgX61cm-8">
          <mxGeometry width="50" height="50" relative="1" as="geometry">
            <mxPoint x="470" y="290" as="sourcePoint" />
            <mxPoint x="520" y="240" as="targetPoint" />
          </mxGeometry>
        </mxCell>
        <mxCell id="OPolez2JLK04nMgX61cm-43" value="7. blockReceivedAndDeleted()" style="text;html=1;align=center;verticalAlign=middle;resizable=0;points=[];autosize=1;strokeColor=none;" vertex="1" parent="1">
          <mxGeometry x="590" y="270" width="200" height="20" as="geometry" />
        </mxCell>
        <mxCell id="OPolez2JLK04nMgX61cm-44" value="" style="endArrow=classic;html=1;exitX=1;exitY=1;exitDx=0;exitDy=0;entryX=0;entryY=0;entryDx=0;entryDy=0;" edge="1" parent="1" source="OPolez2JLK04nMgX61cm-5" target="OPolez2JLK04nMgX61cm-13">
          <mxGeometry width="50" height="50" relative="1" as="geometry">
            <mxPoint x="250" y="360" as="sourcePoint" />
            <mxPoint x="570" y="290" as="targetPoint" />
            <Array as="points" />
          </mxGeometry>
        </mxCell>
        <mxCell id="OPolez2JLK04nMgX61cm-45" value="" style="endArrow=classic;html=1;exitX=0;exitY=0.75;exitDx=0;exitDy=0;entryX=0.5;entryY=1;entryDx=0;entryDy=0;" edge="1" parent="1" source="OPolez2JLK04nMgX61cm-13" target="OPolez2JLK04nMgX61cm-5">
          <mxGeometry width="50" height="50" relative="1" as="geometry">
            <mxPoint x="470" y="290" as="sourcePoint" />
            <mxPoint x="520" y="240" as="targetPoint" />
          </mxGeometry>
        </mxCell>
      </root>
    </mxGraphModel>
  </diagram>
</mxfile>
